# xmcd CD database file
#
# Track frame offsets:
#	150
#	13287
#	27362
#	38475
#	52275
#	66187
#	77675
#	89875
#	102812
#	114100
#	126412
#	139350
#	153150
#	166312
#	179225
#	193075
#	205562
#	219450
#	233762
#	248237
#	258800
#	271225
#	283412
#	296137
#	311825
#	325250
#	339137
#
# Disc length: 4662 seconds
#
# Revision: 5
# Processed by: cddbd v1.5.2PL0 Copyright (c) Steve Scherf et al.
# Submitted via: CDex 1.99
#
DISCID=9a12341b
DTITLE=Various Artist - The Chess Story 1947-1975 CD 4: 1952-1954
DYEAR=1999
DGENRE=Soul/R&B
TTITLE0=The Blue Jays - White Cliffs Of Dover
TTITLE1=Little Walter - Blues With A Feeling
TTITLE2=Sugar Boy Crawford - Jock-A-Mo
TTITLE3=Muddy Waters - Mad Love (I Want You To Love Me)
TTITLE4=Little Walter - You're So Fine
TTITLE5=Jimmy Binkley - Wine, Wine, Wine
TTITLE6=Jimmy Rogers - Chicago Bound
TTITLE7=Muddy Waters - I'm Your Hoochie Coochie Man
TTITLE8=Big Ed and His Combo [Eddie Burns] - Biscuit Baking Woman
TTITLE9=Leon D. Tarver and His Chordones - I'm A Young Rooster
TTITLE10=Muddy Waters - Just Make Love To Me (I Just Want. . .)
TTITLE11=Jimmy Rogers - Sloppy Drunk
TTITLE12=Howlin' Wolf - Evil
TTITLE13=Jimmy Witherspoon - When The Lights Go Out
TTITLE14=Little Walter - You Better Watch Yourself
TTITLE15=Larry Liggett - That Man Is Walking
TTITLE16=Muddy Waters - I'm Ready
TTITLE17=Lowell Fulson - Reconsider Baby
TTITLE18=The Moonglows - Sincerely
TTITLE19=J.B. Lenoir - Mama Talk To Your Daughter
TTITLE20=Little Walter - Last Night
TTITLE21=Otis Spann - It Must Have Been The Devil
TTITLE22=Howlin' Wolf - Fourty Four
TTITLE23=Buddy Griffin and His Orchestra - I Want To Hug You, Kiss You, Squeeze You
TTITLE24=Jimmy Nelson - Free And Easy Mind
TTITLE25=The Moonglows - Most Of All
TTITLE26=Jimmy and Johnny - If You Don't Somebody Else Will
EXTD=YEAR: 1999
EXTT0=
EXTT1=
EXTT2=
EXTT3=
EXTT4=
EXTT5=
EXTT6=
EXTT7=
EXTT8=
EXTT9=
EXTT10=
EXTT11=
EXTT12=
EXTT13=
EXTT14=
EXTT15=
EXTT16=
EXTT17=
EXTT18=
EXTT19=
EXTT20=
EXTT21=
EXTT22=
EXTT23=
EXTT24=
EXTT25=
EXTT26=
PLAYORDER=
